<mxfile host="app.diagrams.net" agent="Mozilla/5.0 (Windows NT 10.0; Win64; x64) AppleWebKit/537.36 (KHTML, like Gecko) Chrome/130.0.0.0 Safari/537.36" version="24.9.0">
  <diagram id="UJlyGFXVCkptwmDJzh81" name="Page-1">
    <mxGraphModel dx="1434" dy="741" grid="1" gridSize="10" guides="1" tooltips="1" connect="1" arrows="1" fold="1" page="1" pageScale="1" pageWidth="827" pageHeight="1169" background="#ffffff" math="0" shadow="0">
      <root>
        <object label="" id="0">
          <mxCell />
        </object>
        <mxCell id="1" parent="0" />
        <object label="" placeholders="1" instruction="edit data of the lower shape within the group" id="5cVvOpawmlWqnZKX2nME-7">
          <mxCell style="group;resizable=0;rotatable=0;allowArrows=0;" parent="1" vertex="1" connectable="0">
            <mxGeometry x="90" y="240" width="160" height="170" as="geometry" />
          </mxCell>
        </object>
        <object label="&lt;div style=&quot;color: rgb(255 , 255 , 255) ; white-space: normal&quot;&gt;&lt;span style=&quot;font-size: 14px&quot;&gt;&lt;b&gt;%name%&lt;/b&gt;&lt;/span&gt;&lt;/div&gt;&lt;div style=&quot;color: rgb(255 , 255 , 255) ; white-space: normal&quot;&gt;&lt;font style=&quot;font-size: 8px&quot;&gt;[Person]&lt;/font&gt;&lt;/div&gt;&lt;div style=&quot;color: rgb(255 , 255 , 255) ; white-space: normal ; font-size: 8px&quot;&gt;&lt;span style=&quot;font-size: x-small&quot;&gt;&lt;br&gt;&lt;/span&gt;&lt;/div&gt;&lt;div style=&quot;color: rgb(255 , 255 , 255) ; white-space: normal&quot;&gt;&lt;font size=&quot;1&quot;&gt;%description%&lt;/font&gt;&lt;/div&gt;" name="Actor Name" description="Description" placeholders="1" id="5cVvOpawmlWqnZKX2nME-5">
          <mxCell style="rounded=1;whiteSpace=wrap;html=1;strokeColor=#00315C;fillColor=#004179;fontColor=#000000;arcSize=31;rotatable=0;strokeWidth=2;metaEdit=1;allowArrows=0;" parent="5cVvOpawmlWqnZKX2nME-7" vertex="1">
            <mxGeometry y="70" width="160" height="100" as="geometry" />
          </mxCell>
        </object>
        <mxCell id="5cVvOpawmlWqnZKX2nME-6" value="" style="ellipse;whiteSpace=wrap;html=1;aspect=fixed;strokeColor=#00315C;fillColor=#004179;fontColor=#000000;rotatable=0;strokeWidth=2;allowArrows=0;" parent="5cVvOpawmlWqnZKX2nME-7" vertex="1">
          <mxGeometry x="40" width="80" height="80" as="geometry" />
        </mxCell>
        <object label="&lt;font style=&quot;font-size: 10px&quot;&gt;&lt;b&gt;%name%&lt;/b&gt;&lt;br style=&quot;font-size: 10px&quot;&gt;[Software System]&lt;/font&gt;" placeholders="1" name="Software System Name" id="5cVvOpawmlWqnZKX2nME-8">
          <mxCell style="rounded=0;whiteSpace=wrap;html=1;strokeColor=#828282;fontColor=#404040;align=left;labelPosition=center;verticalLabelPosition=middle;verticalAlign=bottom;strokeWidth=2;perimeterSpacing=0;spacing=4;spacingTop=0;fontSize=10;fillColor=none;dashed=1;rotatable=0;metaEdit=1;allowArrows=0;" parent="1" vertex="1">
            <mxGeometry x="320" y="40" width="200" height="360" as="geometry" />
          </mxCell>
        </object>
        <object label="&lt;div&gt;&lt;b style=&quot;font-size: 14px&quot;&gt;%name%&lt;/b&gt;&lt;br&gt;&lt;/div&gt;&lt;div style=&quot;font-size: 12px&quot;&gt;&lt;font style=&quot;font-size: 8px&quot;&gt;[Container: %technology%]&lt;/font&gt;&lt;/div&gt;&lt;div style=&quot;font-size: 8px&quot;&gt;&lt;font style=&quot;line-height: 9.6px&quot;&gt;%technology-img-tag%&lt;br&gt;&lt;/font&gt;&lt;/div&gt;&lt;div&gt;&lt;font&gt;%description%&lt;/font&gt;&lt;/div&gt;" placeholders="1" name="Container Name" description="Description" technology="e.g. PostgreSQL" technology-img-tag="&lt;img src=&quot;https://upload.wikimedia.org/wikipedia/commons/2/29/Postgresql_elephant.svg&quot; width=&quot;24&quot; height=&quot;24&quot;&gt;" id="5cVvOpawmlWqnZKX2nME-9">
          <mxCell style="shape=cylinder;whiteSpace=wrap;html=1;boundedLbl=1;backgroundOutline=1;strokeColor=#CCCCCC;strokeWidth=2;fillColor=#FFFFFF;fontSize=9;fontColor=#404040;align=center;resizable=0;rotatable=0;verticalAlign=middle;spacing=2;metaEdit=1;allowArrows=0;" parent="1" vertex="1">
            <mxGeometry x="320" y="720" width="180" height="120" as="geometry" />
          </mxCell>
        </object>
        <object label="&lt;b&gt;%name%&lt;/b&gt;&lt;br style=&quot;font-size: 10px&quot;&gt;[%technology%]" placeholders="1" name="Dependency Operation Name" technology="JDBC" id="5cVvOpawmlWqnZKX2nME-10">
          <mxCell style="endArrow=block;html=1;fontSize=10;fontColor=#404040;strokeWidth=1;endFill=1;dashed=1;dashPattern=8 8;strokeColor=#828282;elbow=vertical;metaEdit=1;" parent="1" edge="1">
            <mxGeometry width="50" height="50" relative="1" as="geometry">
              <mxPoint x="320" y="440" as="sourcePoint" />
              <mxPoint x="520" y="440" as="targetPoint" />
            </mxGeometry>
          </mxCell>
        </object>
        <object label="&lt;span style=&quot;font-size: 10px&quot;&gt;&lt;b&gt;%name%&lt;/b&gt;&lt;br&gt;[%technology%]&lt;br&gt;&lt;/span&gt;" placeholders="1" name="Data Flow Item Name" technology="HTTP" id="5cVvOpawmlWqnZKX2nME-12">
          <mxCell style="endArrow=block;html=1;fontSize=10;fontColor=#404040;strokeWidth=1;endFill=1;strokeColor=#828282;elbow=vertical;metaEdit=1;" parent="1" edge="1">
            <mxGeometry width="50" height="50" relative="1" as="geometry">
              <mxPoint x="320" y="480" as="sourcePoint" />
              <mxPoint x="520" y="480" as="targetPoint" />
            </mxGeometry>
          </mxCell>
        </object>
        <object label="%name%&lt;br style=&quot;font-size: 10px&quot;&gt;&lt;font size=&quot;1&quot;&gt;&lt;span style=&quot;font-weight: 400&quot;&gt;%description%&lt;/span&gt;&lt;/font&gt;" placeholders="1" name="Diagram Name" description="Description" id="5cVvOpawmlWqnZKX2nME-13">
          <mxCell style="text;html=1;resizable=0;points=[];autosize=1;align=left;verticalAlign=top;spacingTop=-4;fontSize=14;fontColor=#404040;fontStyle=1;rotatable=0;metaEdit=1;allowArrows=0;" parent="1" vertex="1">
            <mxGeometry x="80" y="920" width="110" height="40" as="geometry" />
          </mxCell>
        </object>
        <object label="&lt;div&gt;&lt;span style=&quot;font-size: 14px&quot;&gt;&lt;b&gt;%name%&lt;/b&gt;&lt;/span&gt;&lt;/div&gt;&lt;div&gt;&lt;span style=&quot;font-size: 8px&quot;&gt;[Software System&lt;/span&gt;&lt;span style=&quot;font-size: 8px&quot;&gt;]&lt;/span&gt;&lt;/div&gt;&lt;div&gt;&lt;span style=&quot;font-size: 8px&quot;&gt;&lt;br&gt;&lt;/span&gt;&lt;/div&gt;&lt;div&gt;&lt;font size=&quot;1&quot;&gt;%description%&lt;/font&gt;&lt;/div&gt;" placeholders="1" name="External System Name" description="Description of Software System" id="dcKwWc84L9W_I8fYm-3h-1">
          <mxCell style="rounded=1;whiteSpace=wrap;html=1;fillColor=#CCCCCC;fontColor=#404040;strokeColor=#999999;resizable=0;rotatable=0;strokeWidth=2;metaEdit=1;allowArrows=0;" parent="1" vertex="1">
            <mxGeometry x="80" y="440" width="180" height="120" as="geometry" />
          </mxCell>
        </object>
        <object label="&lt;div&gt;&lt;span style=&quot;font-size: 14px&quot;&gt;&lt;b&gt;%name%&lt;/b&gt;&lt;/span&gt;&lt;/div&gt;&lt;div&gt;&lt;span style=&quot;font-size: 8px&quot;&gt;[Software System]&lt;/span&gt;&lt;/div&gt;&lt;div&gt;&lt;span style=&quot;font-size: 8px&quot;&gt;&lt;br&gt;&lt;/span&gt;&lt;/div&gt;&lt;div&gt;&lt;font size=&quot;1&quot;&gt;%description%&lt;/font&gt;&lt;/div&gt;" placeholders="1" name="Software System Name" description="Description" id="dcKwWc84L9W_I8fYm-3h-2">
          <mxCell style="rounded=1;whiteSpace=wrap;html=1;fillColor=#0067BA;fontColor=#FFFFFF;strokeColor=#005DA8;resizable=0;rotatable=0;strokeWidth=2;metaEdit=1;allowArrows=0;" parent="1" vertex="1">
            <mxGeometry x="80" y="600" width="180" height="120" as="geometry" />
          </mxCell>
        </object>
        <object label="&lt;div&gt;&lt;span style=&quot;font-size: 14px&quot;&gt;&lt;b&gt;%name%&lt;/b&gt;&lt;/span&gt;&lt;/div&gt;&lt;div&gt;&lt;span style=&quot;font-size: 8px&quot;&gt;[Container: %technology%]&lt;/span&gt;&lt;/div&gt;&lt;div&gt;&lt;span style=&quot;font-size: 8px&quot;&gt;%technology-img-tag%&lt;/span&gt;&lt;/div&gt;&lt;div&gt;&lt;font size=&quot;1&quot;&gt;%description%&lt;/font&gt;&lt;/div&gt;" placeholders="1" name="Container Name" technology="e.g. Python, Flask" description="Description" technology-img-tag="&lt;img src=&quot;https://upload.wikimedia.org/wikipedia/commons/c/c3/Python-logo-notext.svg&quot; width=&quot;24&quot; height=&quot;24&quot;&gt;" id="dcKwWc84L9W_I8fYm-3h-3">
          <mxCell style="rounded=1;whiteSpace=wrap;html=1;fillColor=#FFFFFF;fontColor=#404040;strokeColor=#CCCCCC;resizable=0;rotatable=0;strokeWidth=2;metaEdit=1;allowArrows=0;" parent="1" vertex="1">
            <mxGeometry x="320" y="560" width="180" height="120" as="geometry" />
          </mxCell>
        </object>
        <object label="&lt;div&gt;&lt;span style=&quot;font-size: 14px&quot;&gt;&lt;b&gt;%name%&lt;/b&gt;&lt;/span&gt;&lt;/div&gt;&lt;div&gt;&lt;span style=&quot;font-size: 8px&quot;&gt;[Component: %technology%]&lt;/span&gt;&lt;/div&gt;&lt;div&gt;&lt;span style=&quot;font-size: 8px&quot;&gt;&lt;br&gt;&lt;/span&gt;&lt;/div&gt;&lt;div&gt;&lt;font size=&quot;1&quot;&gt;%description%&lt;/font&gt;&lt;/div&gt;" placeholders="1" name="Component Name" technology="e.g. Spring Bean" description="Description" id="dcKwWc84L9W_I8fYm-3h-5">
          <mxCell style="rounded=1;whiteSpace=wrap;html=1;fillColor=#85baf0;fontColor=#404040;strokeColor=#6992BD;resizable=0;rotatable=0;strokeWidth=2;metaEdit=1;allowArrows=0;" parent="1" vertex="1">
            <mxGeometry x="80" y="760" width="180" height="120" as="geometry" />
          </mxCell>
        </object>
        <object label="&lt;font style=&quot;font-size: 10px&quot;&gt;&lt;b&gt;%name%&lt;/b&gt;&lt;br style=&quot;font-size: 10px&quot;&gt;[Container]&lt;/font&gt;" placeholders="1" name="Container Name" id="dcKwWc84L9W_I8fYm-3h-12">
          <mxCell style="rounded=0;whiteSpace=wrap;html=1;strokeColor=#828282;fillColor=none;fontColor=#404040;align=left;labelPosition=center;verticalLabelPosition=middle;verticalAlign=bottom;dashed=1;strokeWidth=2;perimeterSpacing=0;spacing=4;spacingTop=0;fontSize=10;container=0;rotatable=0;metaEdit=1;allowArrows=0;" parent="1" vertex="1">
            <mxGeometry x="560" y="440" width="200" height="360" as="geometry">
              <mxRectangle x="560" y="40" width="110" height="30" as="alternateBounds" />
            </mxGeometry>
          </mxCell>
        </object>
        <object label="&lt;font style=&quot;font-size: 10px&quot;&gt;&lt;b&gt;%name%&lt;/b&gt;&lt;br style=&quot;font-size: 10px&quot;&gt;[Domain]&lt;/font&gt;" placeholders="1" name="Domain Name" id="dcKwWc84L9W_I8fYm-3h-13">
          <mxCell style="rounded=0;whiteSpace=wrap;html=1;strokeColor=#828282;fillColor=none;fontColor=#404040;align=left;labelPosition=center;verticalLabelPosition=middle;verticalAlign=bottom;dashed=1;strokeWidth=2;perimeterSpacing=0;spacing=4;spacingTop=0;fontSize=10;rotatable=0;metaEdit=1;allowArrows=0;" parent="1" vertex="1">
            <mxGeometry x="560" y="30" width="200" height="370" as="geometry" />
          </mxCell>
        </object>
        <object label="" placeholders="1" instruction="edit data of the lower shape within the group" id="_E3jYcBlB1CncjWAGzBo-1">
          <mxCell style="group;resizable=0;rotatable=0;fontColor=#404040;metaEdit=1;allowArrows=0;" parent="1" vertex="1" connectable="0">
            <mxGeometry x="90" y="40" width="160" height="170" as="geometry" />
          </mxCell>
        </object>
        <object label="&lt;div style=&quot;white-space: normal;&quot;&gt;&lt;span style=&quot;font-size: 14px&quot;&gt;&lt;b&gt;%name%&lt;/b&gt;&lt;/span&gt;&lt;/div&gt;&lt;div style=&quot;white-space: normal;&quot;&gt;&lt;font style=&quot;font-size: 8px&quot;&gt;[Person]&lt;/font&gt;&lt;/div&gt;&lt;div style=&quot;white-space: normal; font-size: 8px;&quot;&gt;&lt;span style=&quot;font-size: x-small&quot;&gt;&lt;br&gt;&lt;/span&gt;&lt;/div&gt;&lt;div style=&quot;white-space: normal;&quot;&gt;&lt;font size=&quot;1&quot;&gt;%description%&lt;/font&gt;&lt;/div&gt;" name="External Actor Name" description="Description" placeholders="1" id="_E3jYcBlB1CncjWAGzBo-2">
          <mxCell style="rounded=1;whiteSpace=wrap;html=1;strokeColor=#999999;fillColor=#CCCCCC;fontColor=#404040;arcSize=31;rotatable=0;strokeWidth=2;metaEdit=1;allowArrows=0;" parent="_E3jYcBlB1CncjWAGzBo-1" vertex="1">
            <mxGeometry y="70" width="160" height="100" as="geometry" />
          </mxCell>
        </object>
        <mxCell id="_E3jYcBlB1CncjWAGzBo-3" value="" style="ellipse;whiteSpace=wrap;html=1;aspect=fixed;strokeColor=#999999;fillColor=#CCCCCC;fontColor=#000000;rotatable=0;strokeWidth=2;allowArrows=0;" parent="_E3jYcBlB1CncjWAGzBo-1" vertex="1">
          <mxGeometry x="40" width="80" height="80" as="geometry" />
        </mxCell>
        <object label="&lt;span style=&quot;font-size: 10px&quot;&gt;&lt;b&gt;%name%&lt;/b&gt;&lt;br&gt;&lt;/span&gt;" placeholders="1" name="Data Flow Item Name" id="_72d1RQQC_Z0zfZZqTFY-1">
          <mxCell style="endArrow=block;html=1;fontSize=10;fontColor=#404040;strokeWidth=1;endFill=1;strokeColor=#828282;elbow=vertical;metaEdit=1;" parent="1" edge="1">
            <mxGeometry width="50" height="50" relative="1" as="geometry">
              <mxPoint x="320" y="520" as="sourcePoint" />
              <mxPoint x="520" y="520" as="targetPoint" />
            </mxGeometry>
          </mxCell>
        </object>
        <object label="&lt;font style=&quot;font-size: 10px&quot;&gt;&lt;b&gt;%name%&lt;/b&gt;&lt;br style=&quot;font-size: 10px&quot;&gt;[Enterprise]&lt;/font&gt;" placeholders="1" name="Enterprise Name" id="_72d1RQQC_Z0zfZZqTFY-2">
          <mxCell style="rounded=0;whiteSpace=wrap;html=1;strokeColor=#828282;fillColor=none;fontColor=#404040;align=left;labelPosition=center;verticalLabelPosition=middle;verticalAlign=bottom;dashed=1;strokeWidth=2;perimeterSpacing=0;spacing=4;spacingTop=0;fontSize=10;rotatable=0;metaEdit=1;allowArrows=0;" parent="1" vertex="1">
            <mxGeometry x="800" y="30" width="200" height="370" as="geometry" />
          </mxCell>
        </object>
        <object label="&lt;div&gt;&lt;b style=&quot;font-size: 14px&quot;&gt;%name%&lt;/b&gt;&lt;br&gt;&lt;/div&gt;&lt;div style=&quot;font-size: 12px&quot;&gt;&lt;font style=&quot;font-size: 8px&quot;&gt;[Container: %technology%]&lt;/font&gt;&lt;/div&gt;&lt;div style=&quot;font-size: 8px&quot;&gt;&lt;font style=&quot;line-height: 9.6px&quot;&gt;%technology-img-tag%&lt;br&gt;&lt;/font&gt;&lt;/div&gt;&lt;div&gt;&lt;font&gt;%description%&lt;/font&gt;&lt;/div&gt;" placeholders="1" name="Container Name" description="Description" technology="e.g. Kafka" technology-img-tag="&lt;img src=&quot;https://upload.wikimedia.org/wikipedia/commons/0/0a/Apache_kafka-icon.svg&quot; width=&quot;24&quot; height=&quot;24&quot;&gt;" id="DmF5NZpfUTDr3v8k1MgK-2">
          <mxCell style="shape=cylinder;whiteSpace=wrap;html=1;boundedLbl=1;backgroundOutline=1;strokeColor=#CCCCCC;strokeWidth=2;fillColor=#FFFFFF;fontSize=9;fontColor=#404040;align=center;resizable=0;rotatable=0;verticalAlign=middle;spacing=2;metaEdit=1;direction=south;allowArrows=0;" parent="1" vertex="1">
            <mxGeometry x="320" y="880" width="180" height="120" as="geometry" />
          </mxCell>
        </object>
        <object label="&lt;b&gt;%name%&lt;/b&gt;&lt;br&gt;[Deployment Node: %technology%]" placeholders="1" name="Deployment Node Name" technology="e.g. AWS EKS pod" min-node-count="x2" id="DmF5NZpfUTDr3v8k1MgK-3">
          <mxCell style="rounded=0;arcSize=20;fillColor=none;strokeColor=#828282;fontColor=#000000;labelBackgroundColor=none;align=left;verticalAlign=bottom;labelBorderColor=none;spacingTop=0;spacing=4;rotatable=0;perimeter=rectanglePerimeter;labelPadding=0;allowArrows=0;connectable=1;expand=0;recursiveResize=0;editable=1;pointerEvents=1;absoluteArcSize=1;container=0;dropTarget=0;fontSize=10;fontStyle=0;whiteSpace=wrap;html=1;metaEdit=1;strokeWidth=2;" parent="1" vertex="1">
            <mxGeometry x="800" y="440" width="240" height="360" as="geometry" />
          </mxCell>
        </object>
        <object label="&lt;font style=&quot;font-size: 18px&quot;&gt;&lt;b style=&quot;font-size: 18px&quot;&gt;%min-node-count%&lt;/b&gt;&lt;/font&gt;" placeholders="1" id="DmF5NZpfUTDr3v8k1MgK-4">
          <mxCell style="text;html=1;strokeColor=none;fillColor=none;align=right;verticalAlign=bottom;whiteSpace=wrap;rounded=0;rotation=0;part=1;fontColor=#404040;connectable=0;allowArrows=0;movable=0;resizable=0;pointerEvents=1;deletable=0;fontSize=18;metaEdit=1;editable=0;" parent="DmF5NZpfUTDr3v8k1MgK-3" vertex="1">
            <mxGeometry x="1" y="1" width="40" height="33" relative="1" as="geometry">
              <mxPoint x="-44" y="-34" as="offset" />
            </mxGeometry>
          </mxCell>
        </object>
      </root>
    </mxGraphModel>
  </diagram>
</mxfile>
